<?xml version="1.0" encoding="UTF-8"?>
<svg xmlns="http://www.w3.org/2000/svg" xmlns:xlink="http://www.w3.org/1999/xlink" width="283.5pt" height="119.5pt" viewBox="0 0 283.5 119.5" version="1.1">
<defs>
<clipPath id="clip1">
  <path d="M 231 32 L 283.5 32 L 283.5 85 L 231 85 Z M 231 32 "/>
</clipPath>
<clipPath id="clip2">
  <path d="M 119 93 L 148 93 L 148 119.5 L 119 119.5 Z M 119 93 "/>
</clipPath>
<clipPath id="clip3">
  <path d="M 97 93 L 117 93 L 117 119.5 L 97 119.5 Z M 97 93 "/>
</clipPath>
</defs>
<g id="surface1">
<path style=" stroke:none;fill-rule:evenodd;fill:rgb(10.594177%,9.812927%,9.423828%);fill-opacity:1;" d="M 0.0664063 -0.00390625 L 17.246094 -0.00390625 L 17.246094 5.964844 L 12 5.964844 L 12 24.769531 L 5.039063 24.769531 L 5.039063 5.964844 L 0.0664063 5.964844 Z M 34.875 14.824219 L 26.195313 14.824219 L 26.195313 24.769531 L 19.777344 24.769531 L 19.777344 -0.00390625 L 26.195313 -0.00390625 L 26.195313 9.492188 L 34.875 9.492188 L 34.875 -0.00390625 L 41.925781 -0.00390625 L 41.925781 24.769531 L 34.875 24.769531 Z M 60.644531 18.984375 L 60.644531 24.769531 L 46.265625 24.769531 L 46.265625 -0.00390625 L 60.644531 -0.00390625 L 60.644531 5.785156 L 53.320313 5.785156 L 53.320313 9.671875 L 60.28125 9.671875 L 60.28125 15.453125 L 53.320313 15.453125 L 53.320313 18.984375 Z M 60.644531 18.984375 "/>
<path style=" stroke:none;fill-rule:evenodd;fill:rgb(10.594177%,9.812927%,9.423828%);fill-opacity:1;" d="M 70.742188 32.472656 C 85.8125 32.472656 98.03125 44.203125 98.03125 58.671875 C 98.03125 73.152344 85.8125 84.882813 70.742188 84.882813 C 55.671875 84.882813 43.453125 73.152344 43.453125 58.671875 C 43.453125 44.203125 55.671875 32.472656 70.742188 32.472656 Z M 70.742188 32.472656 "/>
<path style=" stroke:none;fill-rule:evenodd;fill:rgb(10.594177%,9.812927%,9.423828%);fill-opacity:1;" d="M 1.246094 34.167969 L 22.734375 34.167969 C 29.027344 34.167969 34.175781 39.570313 34.175781 46.164063 C 34.175781 51.347656 32.425781 55.207031 28.699219 57.066406 C 35.0625 57.347656 38.96875 62.695313 38.96875 69.191406 C 38.96875 76.703125 32.621094 83.183594 24.296875 83.183594 L 1.246094 83.183594 Z M 14.695313 43.914063 L 17.167969 43.914063 C 19.71875 43.914063 21.808594 45.996094 21.808594 48.546875 C 21.808594 51.101563 19.71875 53.1875 17.167969 53.1875 L 14.695313 53.1875 Z M 14.695313 62.859375 L 19.503906 62.859375 C 23.386719 62.859375 25.519531 65.136719 25.519531 67.917969 C 25.519531 70.707031 23.386719 72.984375 19.503906 72.984375 L 14.695313 72.984375 Z M 14.695313 62.859375 "/>
<path style=" stroke:none;fill-rule:evenodd;fill:rgb(10.594177%,9.812927%,9.423828%);fill-opacity:1;" d="M 118.355469 44.027344 L 123.164063 44.027344 C 127.046875 44.027344 129.179688 46.308594 129.179688 49.09375 C 129.179688 51.878906 127.046875 54.15625 123.164063 54.15625 L 118.355469 54.15625 Z M 118.347656 65.246094 L 130.355469 83.183594 L 146.492188 83.183594 L 130.832031 63.078125 C 137.644531 62.03125 141.464844 56.640625 141.464844 48.632813 C 141.464844 40.679688 134.84375 34.167969 128.117188 34.167969 L 105.296875 34.167969 L 105.296875 83.183594 L 118.347656 83.183594 Z M 118.347656 65.246094 "/>
<path style=" stroke:none;fill-rule:evenodd;fill:rgb(10.594177%,9.812927%,9.423828%);fill-opacity:1;" d="M 151.160156 83.183594 L 164.210938 83.183594 L 164.210938 34.167969 L 151.160156 34.167969 Z M 151.160156 83.183594 "/>
<path style=" stroke:none;fill-rule:evenodd;fill:rgb(10.594177%,9.812927%,9.423828%);fill-opacity:1;" d="M 174.089844 34.167969 L 187.140625 34.167969 L 187.140625 34.199219 L 187.171875 34.167969 L 210.261719 63.292969 L 210.261719 34.167969 L 223.308594 34.167969 L 223.308594 83.183594 L 210.261719 83.183594 L 187.140625 53.734375 L 187.140625 83.183594 L 174.089844 83.183594 Z M 174.089844 34.167969 "/>
<g clip-path="url(#clip1)" clip-rule="nonzero">
<path style=" stroke:none;fill-rule:evenodd;fill:rgb(10.594177%,9.812927%,9.423828%);fill-opacity:1;" d="M 257.523438 32.503906 C 267.417969 32.503906 276.023438 38.070313 280.421875 46.265625 L 268.527344 51.667969 C 266.417969 47.03125 262.28125 43.871094 257.523438 43.871094 C 250.621094 43.871094 245.027344 50.511719 245.027344 58.695313 C 245.027344 66.882813 250.621094 73.519531 257.523438 73.519531 C 264.421875 73.519531 270.015625 66.882813 270.015625 58.695313 C 270.015625 57.496094 269.898438 56.335938 269.671875 55.222656 L 283.300781 55.230469 C 283.453125 56.363281 283.53125 57.519531 283.53125 58.695313 C 283.53125 73.164063 271.886719 84.890625 257.523438 84.890625 C 243.15625 84.890625 231.515625 73.164063 231.515625 58.695313 C 231.515625 44.230469 243.15625 32.503906 257.523438 32.503906 Z M 257.523438 32.503906 "/>
</g>
<path style=" stroke:none;fill-rule:evenodd;fill:rgb(10.594177%,9.812927%,9.423828%);fill-opacity:1;" d="M 257.613281 65.871094 L 271.597656 65.871094 L 271.597656 55.222656 L 257.613281 55.222656 Z M 257.613281 65.871094 "/>
<g clip-path="url(#clip2)" clip-rule="nonzero">
<path style=" stroke:none;fill-rule:evenodd;fill:rgb(10.594177%,9.812927%,9.423828%);fill-opacity:1;" d="M 133.1875 93.164063 C 140.828125 93.164063 147.019531 99.035156 147.019531 106.28125 C 147.019531 113.527344 140.828125 119.402344 133.1875 119.402344 C 125.546875 119.402344 119.355469 113.527344 119.355469 106.28125 C 119.355469 99.035156 125.546875 93.164063 133.1875 93.164063 Z M 133.429688 99.644531 C 137.09375 99.644531 140.066406 102.617188 140.066406 106.28125 C 140.066406 109.949219 137.09375 112.917969 133.429688 112.917969 C 129.761719 112.917969 126.789063 109.949219 126.789063 106.28125 C 126.789063 102.617188 129.761719 99.644531 133.429688 99.644531 Z M 133.429688 99.644531 "/>
</g>
<g clip-path="url(#clip3)" clip-rule="nonzero">
<path style=" stroke:none;fill-rule:evenodd;fill:rgb(10.594177%,9.812927%,9.423828%);fill-opacity:1;" d="M 110.976563 93.164063 C 113.015625 93.164063 114.953125 93.582031 116.695313 94.332031 L 116.695313 102.527344 C 115.5 100.785156 113.492188 99.644531 111.21875 99.644531 C 107.550781 99.644531 104.582031 102.617188 104.582031 106.28125 C 104.582031 109.949219 107.550781 112.917969 111.21875 112.917969 C 113.492188 112.917969 115.5 111.777344 116.695313 110.035156 L 116.695313 118.234375 C 114.953125 118.984375 113.015625 119.402344 110.976563 119.402344 C 103.339844 119.402344 97.144531 113.527344 97.144531 106.28125 C 97.144531 99.035156 103.339844 93.164063 110.976563 93.164063 Z M 110.976563 93.164063 "/>
</g>
<path style=" stroke:none;fill-rule:evenodd;fill:rgb(10.594177%,9.812927%,9.423828%);fill-opacity:1;" d="M 156.367188 118.539063 L 149.605469 118.539063 L 153.628906 93.839844 L 160.390625 93.839844 L 165.136719 106.105469 L 169.644531 93.839844 L 176.484375 93.839844 L 180.507813 118.539063 L 173.988281 118.539063 L 171.816406 105.460938 L 166.667969 118.539063 L 163.285156 118.539063 L 158.136719 105.140625 Z M 156.367188 118.539063 "/>
<path style=" stroke:none;fill-rule:evenodd;fill:rgb(10.594177%,9.812927%,9.423828%);fill-opacity:1;" d="M 183.960938 93.839844 L 194.875 93.839844 C 199.496094 93.839844 203.277344 97.621094 203.277344 102.242188 C 203.277344 106.863281 199.496094 110.644531 194.875 110.644531 L 190.785156 110.644531 L 190.785156 118.539063 L 183.960938 118.539063 Z M 190.785156 99.332031 L 193.105469 99.332031 C 194.703125 99.332031 196.011719 100.640625 196.011719 102.242188 C 196.011719 103.839844 194.703125 105.148438 193.105469 105.148438 L 190.785156 105.148438 Z M 190.785156 99.332031 "/>
<path style=" stroke:none;fill-rule:evenodd;fill:rgb(10.594177%,9.812927%,9.423828%);fill-opacity:1;" d="M 211.46875 93.839844 L 218.734375 93.839844 L 227.808594 118.539063 L 220.542969 118.539063 L 219.074219 114.542969 L 211.125 114.542969 L 209.660156 118.539063 L 202.394531 118.539063 Z M 215.101563 103.726563 L 213.046875 109.316406 L 217.15625 109.316406 Z M 215.101563 103.726563 "/>
<path style=" stroke:none;fill-rule:evenodd;fill:rgb(10.594177%,9.812927%,9.423828%);fill-opacity:1;" d="M 248.46875 93.839844 L 255.289063 93.839844 L 255.289063 118.539063 L 248.46875 118.539063 L 237.570313 104.566406 L 237.570313 118.539063 L 230.390625 118.539063 L 230.390625 93.839844 L 237.570313 93.839844 L 237.570313 94.164063 L 248.46875 108.226563 Z M 248.46875 93.839844 "/>
<path style=" stroke:none;fill-rule:evenodd;fill:rgb(10.594177%,9.812927%,9.423828%);fill-opacity:1;" d="M 269.335938 100.117188 L 273.519531 93.839844 L 281.847656 93.839844 L 272.921875 106.65625 L 272.921875 118.539063 L 265.746094 118.539063 L 265.746094 106.65625 L 256.824219 93.839844 L 265.152344 93.839844 Z M 269.335938 100.117188 "/>
</g>
</svg>
